<?xml version="1.0" standalone="no"?><!DOCTYPE svg PUBLIC "-//W3C//DTD SVG 1.1//EN" "http://www.w3.org/Graphics/SVG/1.1/DTD/svg11.dtd"><svg t="1706421472954" class="icon" viewBox="0 0 1133 1024" version="1.1" xmlns="http://www.w3.org/2000/svg" p-id="8991" width="141.625" height="128" xmlns:xlink="http://www.w3.org/1999/xlink"><path d="M296.287932 224.745236c-1.445307-1.445307-4.335921-2.16796-6.503881-2.16796-2.16796 0.722653-3.613267 1.445307-4.335921 2.16796-0.722653 0.722653-1.445307 1.445307-1.445307 2.167961l-7.949189 13.007763-15.175723-3.613268c-1.445307 0-3.613267-1.445307-7.949188 2.167961-2.16796 2.16796-2.16796 5.781228-1.445307 7.226535 0.722653 1.445307 1.445307 2.890614 2.16796 3.613267l10.117149 11.562456-7.949188 13.730416c-0.722653 0.722653-0.722653 2.16796-1.445307 3.613268 0 1.445307 0 4.335921 2.16796 6.503881 2.16796 2.16796 4.335921 2.16796 5.781228 2.167961 1.445307 0 2.16796-0.722653 2.890614-0.722654l-2.890614-5.781228 2.890614 5.781228 14.45307-6.503881 10.117149 11.562456 0.722653 0.722653c0.722653 0.722653 1.445307 1.445307 3.613268 2.167961 1.445307 0.722653 5.058574 0 7.226535-1.445307 2.890614-2.890614 2.16796-5.058574 2.16796-6.503882l-1.445307-15.175723 14.45307-6.503881c0.722653-0.722653 2.16796-0.722653 2.890614-2.167961 0.722653-0.722653 2.16796-2.16796 2.167961-5.058574 0-2.16796-0.722653-4.335921-2.167961-5.781228-1.445307-1.445307-2.890614-2.16796-4.335921-2.167961l-14.45307-3.613267-1.445307-15.175724c-0.722653-2.16796-0.722653-3.613267-2.890614-5.781228zM529.705011 147.421313c-0.722653-1.445307-3.613267-2.16796-5.058575-1.445307-2.16796 0-2.890614 1.445307-3.613267 2.16796-0.722653 0.722653-0.722653 1.445307-1.445307 2.167961l-6.503882 10.117149-13.007763-2.890614c-1.445307 0-3.613267-0.722653-6.503881 1.445307-2.16796 2.890614-2.16796 5.781228-1.445307 7.226534 0.722653 1.445307 1.445307 2.16796 1.445307 2.890614l8.671842 10.117149-6.503882 11.562456c-0.722653 0.722653-0.722653 1.445307-0.722653 2.890614s0 3.613267 1.445307 5.058575c1.445307 1.445307 3.613267 2.16796 5.058574 1.445307 1.445307 0 2.16796-0.722653 2.890614-0.722654l-2.16796-5.058574 2.16796 5.058574 12.28511-5.058574 8.671842 10.117149 0.722653 0.722653c0.722653 0.722653 1.445307 1.445307 2.890614 2.167961 1.445307 0.722653 4.335921 0 5.781228-1.445307 2.16796-2.890614 2.16796-4.335921 2.167961-5.781228l-1.445307-13.007763 12.285109-5.781228c0.722653-0.722653 1.445307-0.722653 2.16796-1.445307 0.722653-0.722653 1.445307-2.16796 2.167961-4.335921 0-2.16796-0.722653-3.613267-2.167961-5.058575-1.445307-1.445307-2.890614-1.445307-3.613267-2.16796l-13.007763-2.890614-1.445307-13.730416c-0.722653-0.722653-0.722653-2.16796-2.16796-4.335921zM656.892025 296.287932c-1.445307-1.445307-4.335921-2.16796-6.503881-2.16796-2.16796 0.722653-3.613267 1.445307-4.335921 2.16796-0.722653 0.722653-1.445307 1.445307-1.445307 2.167961l-7.949188 13.730416-15.175724-3.613267c-1.445307 0-3.613267-1.445307-7.949188 2.16796-2.16796 2.16796-2.16796 5.781228-1.445307 7.226535 0.722653 1.445307 1.445307 2.890614 2.16796 3.613268l10.117149 11.562455-7.949188 13.730417c-0.722653 0.722653-0.722653 2.16796-1.445307 3.613267 0 1.445307 0 4.335921 2.16796 6.503882 2.16796 2.16796 4.335921 2.16796 5.781228 2.16796 1.445307 0 2.16796-0.722653 2.890614-0.722653l-2.890614-5.781228 2.890614 5.781228 14.45307-6.503882 10.117149 11.562456 0.722653 0.722654c0.722653 0.722653 1.445307 1.445307 3.613268 2.16796 1.445307 0.722653 5.058574 0 7.226535-1.445307 2.890614-2.890614 2.16796-5.058574 2.16796-6.503881l-1.445307-15.175724 14.45307-6.503881c0.722653-0.722653 2.16796-0.722653 2.890614-2.167961 0.722653-0.722653 2.16796-2.16796 2.167961-5.058574 0-2.16796-0.722653-4.335921-2.167961-5.781228-1.445307-1.445307-2.890614-2.16796-4.335921-2.16796l-15.175723-2.890614-1.445307-15.175724c0-3.613267 0-5.058574-2.167961-7.226535z" fill="#FFD95E" p-id="8992"></path><path d="M307.127735 321.580805c1.445307 25.292872 28.183486 13.007763 28.183486 13.007762 85.995766-43.35921 143.085392 41.913903 143.085392 41.913903-51.308398-112.011291-172.714185-88.163726-171.268878-54.921665z" fill="#BF618C" p-id="8993"></path><path d="M416.971066 217.518701c55.644319 24.570219 83.827805 93.944954 81.659844 152.479888 1.445307-36.855328 3.613267-68.652082-10.117149-104.062103-19.511644-49.140438-59.98024-97.558222-117.792519-109.120678-16.62103-2.890614-57.089626-2.890614-60.702893 20.956951-3.613267 26.015526 21.679605 24.570219 40.468595 26.015526 22.402258 2.16796 45.52717 4.335921 66.484122 13.730416zM595.466478 229.081157C536.208892 274.608327 521.033169 372.166549 521.033169 372.166549c61.425547-151.757234 125.019054-115.624559 145.976005-133.690896 20.234298-18.788991-12.285109-55.644319-71.542696-9.394496z" fill="#BF618C" p-id="8994"></path><path d="M252.206069 411.912491c4.335921-4.335921 10.117149-7.226535 15.898377-7.226535h467.55681l10.839803-78.769231c1.445307-8.671842 7.226535-15.175723 15.898376-17.343683l151.034581-39.745942c1.445307-0.722653 3.613267-0.722653 5.058574-0.722654 9.394495 0 18.066337 6.503881 20.234298 15.898377 0.722653 1.445307 0.722653 3.613267 0.722653 5.058574 0 9.394495-6.503881 18.066337-15.898377 20.234298l-138.026817 36.132675-39.023288 278.221595-16.621031 118.515173c-1.445307 10.839802-10.117149 18.066337-20.956951 18.066337H312.186309c-10.839802 0-19.511644-7.949188-20.956951-18.066337l-44.081863-312.908963V426.365561c0-5.781228 1.445307-10.839802 5.058574-14.45307z m78.046577 305.682428h69.374736v-65.038815H321.580805l8.671841 65.038815z m-24.570218-179.218066l10.117149 71.542695h84.550458v-71.542695H305.682428z m-13.007763-91.776994l6.503881 49.140437h100.448836v-49.140437H292.674665z m149.589273 205.956245v65.038815h146.698659v-65.038815H442.263938z m0-114.179251v71.542695h146.698659v-71.542695H442.263938z m0-91.776994v49.140437h146.698659v-49.140437H442.263938z m189.335215 205.956245v65.038815h60.702894l9.394495-65.038815h-70.097389z m0-114.179251v71.542695h75.155963l10.117149-71.542695H631.599153z m0-91.776994v49.140437H722.653493l6.503882-49.140437H631.599153z" fill="#666666" p-id="8995"></path><path d="M635.935074 778.297812c28.183486 0 51.308398 23.124912 51.308398 51.308398 0 28.183486-23.124912 51.308398-51.308398 51.308398-28.183486 0-51.308398-23.124912-51.308398-51.308398 0-28.183486 23.124912-51.308398 51.308398-51.308398z m0 77.323924c14.45307 0 25.292872-11.562456 25.292872-25.292872 0-14.45307-11.562456-25.292872-25.292872-25.292872-14.45307 0-25.292872 11.562456-25.292872 25.292872s11.562456 25.292872 25.292872 25.292872zM380.838391 778.297812c28.183486 0 51.308398 23.124912 51.308398 51.308398 0 28.183486-23.124912 51.308398-51.308398 51.308398-28.183486 0-51.308398-23.124912-51.308398-51.308398 0-28.183486 23.124912-51.308398 51.308398-51.308398z m0 77.323924c14.45307 0 25.292872-11.562456 25.292872-25.292872 0-14.45307-11.562456-25.292872-25.292872-25.292872-14.45307 0-25.292872 11.562456-25.292872 25.292872s11.562456 25.292872 25.292872 25.292872z" fill="#17BADE" p-id="8996"></path></svg>